<?xml version="1.0" encoding="utf-8"?>
<!-- Generator: Adobe Illustrator 27.9.0, SVG Export Plug-In . SVG Version: 6.00 Build 0)  -->
<svg version="1.1" id="Layer_1" xmlns="http://www.w3.org/2000/svg" xmlns:xlink="http://www.w3.org/1999/xlink" x="0px" y="0px"
	 viewBox="0 0 128 128" style="enable-background:new 0 0 128 128;" xml:space="preserve">
<style type="text/css">
	.st0{fill:#5050FF;}
	.st1{fill:#F03E2F;}
	.st2{fill:#FFFFFF;}
	.st3{fill:#F9B1AB;}
</style>
<circle class="st0" cx="64.3" cy="64.1" r="62.2"/>
<circle class="st1" cx="64.9" cy="64.1" r="49.3"/>
<path class="st2" d="M42.9,38.2c0,9.3,5.9,14.9,17.6,17.8L73,58.9c11.1,2.5,17.9,8.8,17.9,18.9c0.1,4.4-1.4,8.8-4.2,12.2
	c0-10.1-5.3-15.6-18.2-18.9l-12.2-2.7C46.5,66.2,38.9,61,38.9,50C38.9,45.7,40.2,41.6,42.9,38.2z"/>
<path class="st3" d="M79.1,75.3c5.3,3.3,7.6,8,7.6,14.7c-4.4,5.5-12.1,8.6-21.2,8.6c-15.3,0-26-7.4-28.4-20.2h14.7
	c1.9,5.9,6.9,8.6,13.6,8.6C73.5,87,79,82.8,79.1,75.3"/>
<path class="st3" d="M50.5,52c-2.4-1.4-4.4-3.5-5.8-5.9s-2-5.2-1.9-8c4.2-5.5,11.6-8.8,20.6-8.8c15.6,0,24.6,8.1,26.8,19.5H76.2
	c-1.6-4.5-5.5-8-12.6-8C56,40.8,50.8,45.2,50.5,52"/>
</svg>
